# xmcd
#
# Track frame offsets: 
#        150
#        12450
#        24075
#        34620
#        39344
#        52254
#        63351
#        74550
#        84375
#        93600
#        104645
#        117825
#        129525
#        138825
#        161801
#        174947
#
# Disc length: 2470 seconds
#
# Revision: 0
# Processed by: cddbd v1.5.2PL0 Copyright (c) Steve Scherf et al.
# Submitted via: ExactAudioCopy v0.95b3
#
DISCID=d709a410
DTITLE=Shocking Blue  - Beat With Us (1968),  Polydor Special CD  FLAC
DYEAR=1900
DGENRE=
TTITLE0=1. Love Is In The Air
TTITLE1=2. Ooh Wee There's Music In Me
TTITLE2=3. What You Gonna Do
TTITLE3=4. Whisky Don't Wash My Brain
TTITLE4=5. Little Maggie
TTITLE5=6. Jail My Second Home
TTITLE6=7. What's Wrong Bertha
TTITLE7=8. League of Angels
TTITLE8=9. Rockin' Pneumonia And The Boogie Woogie Flu
TTITLE9=10. That's Allright
TTITLE10=11.Crazy Drunken Man Dreams
TTITLE11=12. Beggarman
TTITLE12=13. Hold Me, Hug Me, Rock Me
TTITLE13=14. Where My Baby's Gone
TTITLE14=15. Whisky don't wash my brains
TTITLE15=16. League of Angels
EXTD=
EXTT0=
EXTT1=
EXTT2=
EXTT3=
EXTT4=
EXTT5=
EXTT6=
EXTT7=
EXTT8=
EXTT9=
EXTT10=
EXTT11=
EXTT12=
EXTT13=
EXTT14=
EXTT15=
PLAYORDER=
